<svg xmlns="http://www.w3.org/2000/svg" xmlns:xlink="http://www.w3.org/1999/xlink" xmlns:blush="http://design.blush" viewBox="76.5 102.00000000000011 765.0000000000001 828.7499999999999" overflow="visible" width="765.0000000000001px" height="828.7499999999999px"><defs><polygon id="masterspot-illustrationbrowsing-path-1" points="0.788923017 0.381 328.99029 0.381 328.99029 507 0.788923017 507"/><polygon id="masterspot-illustrationbrowsing-path-3" points="0 0.971969833 42.3311467 0.971969833 42.3311467 76.5646 0 76.5646"/></defs><g id="Master/Spot Illustration/Browsing" stroke="none" stroke-width="1" fill="none" fill-rule="evenodd" blush:viewBox="86.70000000000005 102.00000000000011 780.3000000000002 821.1000000000001" blush:i="0"><path d="M442.110214,296.765039 L368.564333,140.330556 C366.027536,134.93677 357.989172,136.357907 357.456657,142.295645 L340.274063,333.763599 C340.002905,336.777389 337.479176,339.085511 334.453968,339.085511 L161.853756,339.085511 C155.95362,339.085511 153.771289,346.833156 158.804046,349.912286 L288.491059,429.263987 C291.552204,431.1376 292.225199,435.294833 289.897487,438.027663 C266.791888,465.179542 161.156259,589.543706 164.895299,589.543706 C168.529796,589.543706 302.222107,545.493368 338.03946,533.668531 C342.114997,532.322535 346.177466,535.690792 345.644951,539.949302 L322.712501,723.413152 C321.985602,729.225111 329.3085,732.372847 333.026305,727.844812 L456.584495,577.372569 C459.055953,574.362046 463.724444,574.567866 465.92311,577.782575 L560.699353,716.395677 C564.105162,721.374556 571.905037,718.555151 571.338219,712.547173 L552.984418,517.998457 C552.696926,514.94873 554.813918,512.194665 557.834226,511.686649 L723.877642,483.811134 C729.681402,482.837574 730.565116,474.86124 725.115821,472.639693 L576.433048,412.022494 C571.465631,409.996966 571.624078,402.909251 576.676437,401.109145 L755.116346,337.460188 C761.101423,335.325216 759.858344,326.520702 753.515534,326.127031 L561.921197,314.225419 C558.938459,314.040835 556.574811,311.63307 556.4474,308.643782 L547.94186,110.597762 C547.677236,104.436236 539.284407,102.833782 536.768845,108.467691 L452.732745,296.662129 C450.69416,301.226102 444.237007,301.289808 442.110214,296.765039" id="Fill-21" fill="#FFE2E9" opacity=".5" blush:i="0.0"/><g id="Phone Screen" transform="translate(367.000000, 101.000000) scale(1 1)" blush:width="570" blush:height="654" blush:component="Phone Screen" blush:i="0.1" blush:value="Stats" blush:viewBox="101.97247706422013 71.93999999999994 366.0550458715596 510.1200000000001"><defs blush:i="0.1.0"><polygon id="phone-screenstats-path-1" points="0.918723017 0.381 329.12009 0.381 329.12009 506.99952 0.918723017 506.99952" blush:i="0.1.0.0"/></defs><g id="Phone Screen/Stats" stroke="none" stroke-width="1" fill="none" fill-rule="evenodd" blush:viewBox="101.97247706422013 71.93999999999994 366.0550458715596 510.1200000000001" blush:i="0.1.1"><g id="Group-52" transform="translate(104.000000, 73.000000)" blush:i="0.1.1.0"><g id="Group-3" transform="translate(20.000000, 0.619000)" blush:i="0.1.1.0.0"><mask id="phone-screenstats-mask-2" fill="#ffffff" blush:i="0.1.1.0.0.0"><use xlink:href="#phone-screenstats-path-1" fill="#ffffff" blush:i="0.1.1.0.0.0.0"/></mask><g id="Clip-2" blush:i="0.1.1.0.0.1"/><path d="M82.0181,1.0599 C82.0181,1.0599 45.7711,-0.2701 42.1131,32.5399 C38.0061,69.3789 3.5391,419.6189 1.3221,457.3059 C-0.8959,494.9949 5.3121,506.5219 38.1221,506.9649 C70.9331,507.4099 250.9491,503.4179 250.9491,503.4179 C250.9491,503.4179 281.8751,503.0859 285.0891,476.3719 C289.2171,442.0669 325.4381,69.7859 328.5411,39.1919 C331.6451,8.5969 322.7781,1.8549 289.5241,0.7919 C256.2691,-0.2701 82.0181,1.0599 82.0181,1.0599" id="Fill-1" fill="#CBB1F4" mask="url(#phone-screenstats-mask-2)" blush:i="0.1.1.0.0.2"/></g><path d="M188.9292,466.2941 L134.8912,466.2941 C134.8912,466.2941 120.4252,465.6291 119.5942,472.4461 C118.7622,479.2631 124.5822,482.0901 134.7252,482.2561 C144.8662,482.4221 188.9292,482.2561 188.9292,482.2561 C188.9292,482.2561 207.0522,482.7991 207.0522,474.9401 C207.0522,466.2161 188.9292,466.2941 188.9292,466.2941" id="Fill-4" fill="#8C72CB" blush:i="0.1.1.0.1"/><polygon id="Fill-6" fill="#4D33A2" points="60.1177 443.8478 272.6117 445.8428 311.5187 37.8148 99.3577 37.8148" blush:i="0.1.1.0.2"/><polygon id="Fill-8" fill="#8C72CB" points="133.5767 421.4562 134.2417 432.7632 256.6167 433.9822 256.6167 423.2292" blush:i="0.1.1.0.3"/><path d="M200.6714,19.4142 C200.3174,26.9862 211.8844,27.1392 211.9784,19.6352 C212.0734,11.9902 201.0334,11.6892 200.6714,19.4142" id="Fill-10" fill="#8C72CB" blush:i="0.1.1.0.4"/><polygon id="Fill-12" fill="#8C72CB" points="186.7837 256.1837 181.0187 314.1567 338.4227 314.1567 345.5157 259.7307" blush:i="0.1.1.0.5"/><polygon id="Fill-14" fill="#EFD638" points="200.0854 285.1701 193.8774 340.8701 353.9404 343.9751 362.3644 287.6641" blush:i="0.1.1.0.6"/><path d="M110.0776,88.1398 L52.8806,86.5878 C52.8806,86.5878 34.7016,85.8118 34.7016,97.6718 C34.7016,111.1348 54.2106,111.1348 54.2106,111.1348 L113.8466,111.8988 C113.8466,111.8988 132.0246,113.4118 132.0246,100.7408 C132.0246,87.0148 110.0776,88.1398 110.0776,88.1398" id="Fill-16" fill="#FEF864" blush:i="0.1.1.0.7"/><polygon id="Fill-18" fill="#7D7AF9" points="99.5464 209.4064 135.7934 209.4064 143.4424 130.9274 107.8604 130.9274" blush:i="0.1.1.0.8"/><polygon id="Fill-20" fill="#4947D9" points="151.7554 209.4064 189.0004 209.4064 192.3254 146.8884 157.0764 146.8884" blush:i="0.1.1.0.9"/><polygon id="Fill-22" fill="#7D7AF9" points="201.6372 209.4064 237.8842 209.4064 245.5332 100.7404 209.6172 100.7404" blush:i="0.1.1.0.10"/><polygon id="Fill-24" fill="#4947D9" points="248.5249 208.0763 285.1049 209.4063 295.4139 71.4013 259.1669 71.4013" blush:i="0.1.1.0.11"/><polygon id="Fill-26" fill="#1514B9" points="174.4116 135.0265 160.7556 101.5665 139.2666 122.5095 132.9856 116.0645 164.0406 85.7975 176.9856 117.5145 228.6176 53.5735 232.8906 77.6545 268.9056 44.1635 275.0346 50.7535 226.9166 95.5005 223.2076 74.5985" blush:i="0.1.1.0.12"/><polygon id="Fill-28" fill="#4947D9" points="211.3638 224.5363 200.8048 224.5363 199.9738 233.8483 210.7818 233.8483" blush:i="0.1.1.0.13"/><polygon id="Fill-30" fill="#7D7AF9" points="257.7534 224.5363 247.1944 224.5363 246.3634 233.8483 257.1714 233.8483" blush:i="0.1.1.0.14"/><polygon id="Fill-32" fill="#8C72CB" points="134.2417 404.9406 134.2417 414.2516 256.6167 416.6896 256.6167 407.1576" blush:i="0.1.1.0.15"/><polygon id="Fill-34" fill="#8C72CB" points="189.4438 397.8459 256.6168 398.9539 256.6168 389.1999 189.4438 387.7589" blush:i="0.1.1.0.16"/><polygon id="Fill-36" fill="#8C72CB" points="189.4438 380.6652 256.6168 382.1052 256.6168 372.2402 191.1068 371.2692" blush:i="0.1.1.0.17"/><polygon id="Fill-38" fill="#8C72CB" points="191.2173 364.1486 257.1713 365.6226 257.1713 354.9486 191.8823 353.6186" blush:i="0.1.1.0.18"/><path d="M121.1392,248.7648 C79.9672,211.6708 -3.5528,228.2888 0.1172,303.9358 C3.7752,379.3338 104.9012,386.8948 136.3142,337.3338 L69.7292,302.7398 L121.1392,248.7648 Z" id="Fill-40" fill="#FF71DB" blush:i="0.1.1.0.19"/><path d="M145.5483,300.9152 C144.9253,289.5532 142.1173,279.3972 137.7093,270.5382 L69.7293,302.7392 L136.3143,337.3342 C142.7543,327.1732 146.3173,314.9412 145.5483,300.9152" id="Fill-42" fill="#AD0B84" blush:i="0.1.1.0.20"/><path d="M137.7095,270.5382 C133.4915,262.0592 127.8065,254.7702 121.1395,248.7652 L69.7295,302.7392 L137.7095,270.5382 Z" id="Fill-44" fill="#FF00BF" blush:i="0.1.1.0.21"/><path d="M137.7095,270.5382 L137.7155,270.5352 L137.7095,270.5382 Z" id="Fill-46" fill="#FF71DB" blush:i="0.1.1.0.22"/><path d="M137.7095,270.5382 L137.7155,270.5352 L137.7095,270.5382 Z" id="Stroke-48" stroke="#FFF" blush:i="0.1.1.0.23"/><path d="M99.5464,209.1427 C100.7484,209.1427 100.7484,207.6567 101.9494,207.6567 C103.1514,207.6567 103.1514,211.0917 104.3534,211.0917 C105.5554,211.0917 105.5554,208.5597 106.7574,208.5597 C107.9604,208.5597 107.9604,210.4027 109.1624,210.4027 C110.3654,210.4027 110.3654,211.0007 111.5694,211.0007 C112.7734,211.0007 112.7734,210.2817 113.9774,210.2817 C115.1824,210.2817 115.1824,209.9347 116.3874,209.9347 C117.5914,209.9347 117.5914,207.6387 118.7964,207.6387 C120.0004,207.6387 120.0004,207.6597 121.2034,207.6597 C122.4074,207.6597 122.4074,207.9227 123.6104,207.9227 C124.8134,207.9227 124.8134,208.4037 126.0164,208.4037 C127.2194,208.4037 127.2194,208.4567 128.4214,208.4567 C129.6234,208.4567 129.6234,209.6547 130.8254,209.6547 C132.0284,209.6547 132.0284,209.9877 133.2314,209.9877 C134.4334,209.9877 134.4334,208.3887 135.6354,208.3887 C136.8384,208.3887 136.8384,211.1157 138.0404,211.1157 C139.2434,211.1157 139.2434,209.0937 140.4464,209.0937 C141.6504,209.0937 141.6504,210.0327 142.8544,210.0327 C144.0584,210.0327 144.0584,211.1877 145.2624,211.1877 C146.4684,211.1877 146.4684,209.4007 147.6734,209.4007 C148.8784,209.4007 148.8784,210.1927 150.0824,210.1927 C151.2874,210.1927 151.2874,209.5867 152.4914,209.5867 C153.6944,209.5867 153.6944,209.8117 154.8994,209.8117 C156.1024,209.8117 156.1024,210.2927 157.3064,210.2927 C158.5094,210.2927 158.5094,210.5387 159.7124,210.5387 C160.9154,210.5387 160.9154,210.9087 162.1184,210.9087 C163.3224,210.9087 163.3224,210.7087 164.5254,210.7087 C165.7304,210.7087 165.7304,210.9307 166.9344,210.9307 C168.1394,210.9307 168.1394,208.5217 169.3444,208.5217 C170.5494,208.5217 170.5494,209.3397 171.7554,209.3397 C172.9604,209.3397 172.9604,209.9147 174.1654,209.9147 C175.3694,209.9147 175.3694,209.4787 176.5734,209.4787 C177.7774,209.4787 177.7774,208.0087 178.9824,208.0087 C180.1864,208.0087 180.1864,210.6947 181.3904,210.6947 C182.5944,210.6947 182.5944,208.8527 183.7984,208.8527 C185.0034,208.8527 185.0034,211.2467 186.2074,211.2467 C187.4134,211.2467 187.4134,208.1277 188.6184,208.1277 C189.8244,208.1277 189.8244,208.1217 191.0294,208.1217 C192.2344,208.1217 192.2344,208.4357 193.4404,208.4357 C194.6444,208.4357 194.6444,208.1687 195.8494,208.1687 C197.0534,208.1687 197.0534,208.6297 198.2584,208.6297 C199.4624,208.6297 199.4624,210.6627 200.6674,210.6627 C201.8734,210.6627 201.8734,211.0567 203.0794,211.0567 C204.2844,211.0567 204.2844,208.0477 205.4904,208.0477 C206.6954,208.0477 206.6954,211.2467 207.9004,211.2467 C209.1064,211.2467 209.1064,209.7267 210.3114,209.7267 C211.5164,209.7267 211.5164,209.9247 212.7214,209.9247 C213.9274,209.9247 213.9274,210.0197 215.1344,210.0197 C216.3394,210.0197 216.3394,210.4377 217.5444,210.4377 C218.7504,210.4377 218.7504,209.0797 219.9554,209.0797 C221.1604,209.0797 221.1604,210.1737 222.3664,210.1737 C223.5724,210.1737 223.5724,210.0617 224.7784,210.0617 C225.9844,210.0617 225.9844,209.5687 227.1904,209.5687 C228.3964,209.5687 228.3964,208.2977 229.6024,208.2977 C230.8084,208.2977 230.8084,209.2477 232.0144,209.2477 C233.2184,209.2477 233.2184,210.9487 234.4224,210.9487 C235.6254,210.9487 235.6254,207.7037 236.8284,207.7037 C238.0324,207.7037 238.0324,209.6047 239.2364,209.6047 C240.4424,209.6047 240.4424,210.6987 241.6494,210.6987 C242.8544,210.6987 242.8544,209.1327 244.0604,209.1327 C245.2654,209.1327 245.2654,207.8857 246.4694,207.8857 C247.6744,207.8857 247.6744,208.5537 248.8804,208.5537 C250.0874,208.5537 250.0874,210.0007 251.2934,210.0007 C252.4994,210.0007 252.4994,210.8897 253.7044,210.8897 C254.9114,210.8897 254.9114,210.6357 256.1184,210.6357 C257.3244,210.6357 257.3244,208.8037 258.5304,208.8037 C259.7374,208.8037 259.7374,207.9907 260.9454,207.9907 C262.1514,207.9907 262.1514,209.3817 263.3584,209.3817 C264.5664,209.3817 264.5664,210.1607 265.7734,210.1607 C266.9814,210.1607 266.9814,210.2887 268.1894,210.2887 C269.3944,210.2887 269.3944,209.0757 270.5994,209.0757 C271.8064,209.0757 271.8064,208.3867 273.0124,208.3867 C274.2204,208.3867 274.2204,208.9437 275.4294,208.9437 C276.6374,208.9437 276.6374,211.0417 277.8454,211.0417 C279.0544,211.0417 279.0544,207.8627 280.2624,207.8627 C281.4734,207.8627 281.4734,209.4987 282.6844,209.4987 C283.8944,209.4987 283.8944,208.8387 285.1054,208.8387" id="Stroke-50" stroke="#1514B9" stroke-width="3" stroke-linecap="round" blush:i="0.1.1.0.24"/></g></g></g><g transform="translate(0.000000, 174.000000) scale(1 1)" blush:has-customizable-colors="true" blush:width="625" blush:height="749" id="Master/Character/Standing" blush:component="Master/Character/Standing" blush:i="0.2" blush:value="Standing" blush:viewBox="243.18045563549163 220.95499999999993 314.74820143884904 528.0450000000001"><g id="Master/Character/Standing" stroke="none" stroke-width="1" fill="none" fill-rule="evenodd" blush:has-customizable-colors="true" blush:viewBox="243.18045563549163 220.95499999999993 314.74820143884904 528.0450000000001" blush:i="0.2.0"><g id="Standing/Lower Body" transform="translate(14.000000, 442.000000) scale(1 1)" blush:width="548" blush:height="307" blush:component="Standing/Lower Body" blush:i="0.2.0.0" blush:value="Running" blush:viewBox="73.97999999999996 -2.7410714285714164 460.31999999999994 309.74107142857133"><g id="Standing/Lower Body/Running" stroke="none" stroke-width="1" fill="none" fill-rule="evenodd" blush:viewBox="73.97999999999996 -2.7410714285714164 460.31999999999994 309.74107142857133" blush:i="0.2.0.0.0"><g id="Group-332" transform="translate(75.000000, -1.000000)" blush:i="0.2.0.0.0.0"><g id="Group-231" transform="translate(0.000000, 0.142000)" blush:i="0.2.0.0.0.0.0"><path d="M393.9674,247.3598 L268.9044,49.5398 L268.0294,25.9728 C268.0294,11.9318 256.6464,0.5488 242.6054,0.5488 L190.6694,0.5488 C176.6284,0.5488 165.2454,11.9318 165.2454,25.9728 L214.1934,102.3648 C212.4004,113.7768 210.0384,124.2688 206.9244,131.9428 C194.5094,162.5368 168.3494,155.4418 168.3494,155.4418 L91.1994,135.4898 L73.9564,195.8408 C72.2174,201.9278 75.7944,208.2568 81.9074,209.8978 C101.5024,215.1578 142.8054,225.8988 171.0094,230.8178 C206.7244,237.0468 245.9384,231.2168 268.2534,186.7358 L318.6574,265.4028 L387.7164,259.8338 C393.8214,259.3408 397.2274,252.5458 393.9674,247.3598" id="Fill-221" fill="#FECB72" blush:i="0.2.0.0.0.0.0.0"/><path d="M318.6579,265.4027 L340.5479,303.5467 C341.8869,305.8787 344.3699,307.3157 347.0589,307.3157 L356.4859,307.3157 C358.5929,307.3157 360.1219,305.3127 359.5669,303.2807 L357.1219,294.3337 C357.1219,294.3337 355.0939,288.7107 358.7849,288.4587 C363.6619,288.1267 366.8709,295.7457 370.8019,301.4057 C373.3669,305.1007 377.5909,307.2847 382.0889,307.2277 C398.0619,307.0237 434.9739,306.4917 440.3679,305.8617 C448.9039,304.8637 456.8849,302.6467 457.3279,295.7747 C457.7709,288.9017 448.3489,287.6827 448.3489,287.6827 C448.3489,287.6827 402.3169,279.1037 385.5949,260.0047 L318.6579,265.4027 Z" id="Fill-223" fill="#000" blush:i="0.2.0.0.0.0.0.1"/><path d="M91.1999,135.4896 L39.3359,121.7226 C36.2429,120.9016 33.0579,122.6906 32.1499,125.7596 L28.9889,136.4396 C28.1959,139.1176 29.3849,141.9836 31.8399,143.3146 L41.4299,148.5136 C41.4299,148.5136 45.9959,150.7596 44.4229,154.5006 C43.2289,157.3376 38.7689,156.3286 38.7689,156.3286 L29.7289,154.6016 C26.4629,153.9776 23.2559,155.9356 22.3169,159.1266 L1.5249,229.8206 C1.5249,229.8206 -2.3411,242.7976 7.6769,246.2816 C22.9739,251.6016 43.2589,206.0446 43.2589,206.0446 C43.2589,206.0446 50.5749,189.0846 74.8179,192.8276 L91.1999,135.4896 Z" id="Fill-225" fill="#000" blush:i="0.2.0.0.0.0.0.2"/><path d="M272.2599,194.3051 C271.9309,194.3051 271.6089,194.1431 271.4169,193.8451 C271.0219,193.2281 270.8949,192.8291 270.7919,192.5101 C270.7089,192.2481 270.6429,192.0411 270.3889,191.6461 C270.1799,191.3191 270.0469,191.2331 269.8069,191.0761 C269.4979,190.8731 269.0759,190.5981 268.6359,189.9101 C268.2609,189.3261 268.1209,188.9771 267.9979,188.6701 C267.8949,188.4121 267.8059,188.1901 267.5329,187.7641 C267.1069,187.0991 267.0169,186.6461 266.9449,186.2811 C266.8889,186.0021 266.8559,185.8341 266.6339,185.4881 C266.3709,185.0781 266.2119,184.9231 266.0119,184.7261 C265.7679,184.4871 265.4899,184.2161 265.1059,183.6151 C264.7389,183.0421 264.5929,182.7071 264.4639,182.4111 C264.3509,182.1521 264.2529,181.9281 263.9739,181.4911 C263.7779,181.1861 263.6539,181.1121 263.4059,180.9631 C263.0769,180.7681 262.6269,180.5001 262.1769,179.7971 C261.7879,179.1921 261.6599,178.8221 261.5479,178.4951 C261.4559,178.2331 261.3849,178.0251 261.1249,177.6201 C260.7409,177.0211 260.6109,176.6581 260.4939,176.3361 C260.3989,176.0731 260.3229,175.8641 260.0599,175.4521 C259.6879,174.8711 259.5469,174.5281 259.4219,174.2231 C259.3169,173.9661 259.2259,173.7431 258.9509,173.3151 C258.7539,173.0081 258.6289,172.9331 258.3809,172.7841 C258.0539,172.5881 257.6049,172.3201 257.1549,171.6171 C256.8549,171.1491 256.6839,170.9291 256.5129,170.7081 C256.3159,170.4531 256.1169,170.1981 255.7699,169.6571 C255.3909,169.0641 255.2549,168.7081 255.1359,168.3951 C255.0339,168.1291 254.9539,167.9191 254.6869,167.5001 C254.4479,167.1281 254.2949,167.0021 254.0839,166.8271 C253.8139,166.6051 253.4779,166.3271 253.0699,165.6921 C252.6639,165.0601 252.5489,164.6451 252.4559,164.3111 C252.3809,164.0441 252.3269,163.8521 252.0849,163.4731 C251.7259,162.9121 251.5749,162.5901 251.4419,162.3051 C251.3199,162.0431 251.2139,161.8181 250.9269,161.3691 C250.7089,161.0301 250.5709,160.9311 250.3409,160.7691 C250.0349,160.5531 249.6549,160.2841 249.2269,159.6161 C248.8459,159.0221 248.7119,158.6631 248.5939,158.3481 C248.4939,158.0831 248.4159,157.8731 248.1509,157.4581 C247.7219,156.7901 247.6359,156.3311 247.5679,155.9631 C247.5149,155.6871 247.4839,155.5191 247.2659,155.1791 C246.9439,154.6761 246.7809,154.4271 246.6169,154.1771 C246.4529,153.9261 246.2879,153.6741 245.9649,153.1691 C245.7059,152.7661 245.5479,152.6141 245.3479,152.4211 C245.1009,152.1831 244.8209,151.9121 244.4339,151.3101 L243.1439,149.2941 C242.7429,148.6681 242.6229,148.2601 242.5269,147.9321 C242.4479,147.6641 242.3919,147.4701 242.1459,147.0861 C241.9359,146.7591 241.7959,146.6661 241.5669,146.5121 C241.2629,146.3101 240.8489,146.0341 240.4119,145.3541 C240.1719,144.9781 240.0199,144.8501 239.8089,144.6731 C239.5429,144.4511 239.2129,144.1731 238.8089,143.5411 C238.4679,143.0101 238.3159,142.7351 238.1619,142.4571 C238.0259,142.2101 237.8889,141.9631 237.5849,141.4891 C237.1809,140.8581 237.0649,140.4441 236.9719,140.1111 C236.8979,139.8441 236.8439,139.6511 236.6019,139.2731 C236.2689,138.7541 236.1109,138.4921 235.9509,138.2281 C235.8009,137.9791 235.6509,137.7281 235.3369,137.2391 C235.0249,136.7511 234.8599,136.5111 234.6959,136.2721 C234.5209,136.0161 234.3469,135.7631 234.0129,135.2421 C233.7689,134.8601 233.6159,134.7291 233.4059,134.5461 C233.1459,134.3231 232.8219,134.0431 232.4199,133.4151 C231.9779,132.7261 231.9079,132.2221 231.8589,131.8541 C231.8209,131.5731 231.7989,131.4181 231.5949,131.1001 C231.1989,130.4821 231.0749,130.0811 230.9759,129.7591 C230.8919,129.4911 230.8309,129.2961 230.5809,128.9061 C230.4499,128.7011 230.3659,128.6741 230.0549,128.5721 C229.6269,128.4321 228.9819,128.2211 228.4659,127.4161 C228.0679,126.7941 227.9469,126.3901 227.8489,126.0651 C227.7679,125.7961 227.7089,125.6031 227.4609,125.2151 C227.1049,124.6591 226.9509,124.3411 226.8169,124.0601 C226.6909,123.7971 226.5819,123.5711 226.2919,123.1181 C225.9829,122.6361 225.8159,122.4041 225.6479,122.1711 C225.4649,121.9181 225.2809,121.6631 224.9449,121.1381 C224.7139,120.7781 224.5689,120.6641 224.3479,120.4921 C224.0659,120.2721 223.7139,119.9971 223.2989,119.3501 C222.8239,118.6101 222.8119,118.0421 222.8019,117.6291 C222.7949,117.3311 222.7919,117.2081 222.6209,116.9411 C222.4339,116.6491 222.3089,116.5791 222.0599,116.4411 C221.7169,116.2501 221.2459,115.9891 220.7869,115.2731 C220.3549,114.5971 220.2719,114.1111 220.2109,113.7551 C220.1639,113.4801 220.1359,113.3141 219.9219,112.9811 C219.5189,112.3501 219.4039,111.9351 219.3109,111.6011 C219.2369,111.3341 219.1839,111.1421 218.9419,110.7651 C218.7319,110.4371 218.5919,110.3431 218.3619,110.1901 C218.0599,109.9881 217.6459,109.7101 217.2099,109.0311 C216.9589,108.6391 216.8079,108.5021 216.5989,108.3131 C216.3499,108.0871 216.0399,107.8071 215.6459,107.1921 C215.2199,106.5281 215.1309,106.0751 215.0599,105.7101 C215.0049,105.4331 214.9719,105.2661 214.7519,104.9221 C214.5279,104.5721 214.3809,104.4631 214.1609,104.2981 C213.8679,104.0791 213.5039,103.8071 213.0829,103.1511 C212.7849,102.6861 212.9199,102.0671 213.3859,101.7691 C213.8489,101.4691 214.4689,101.6061 214.7669,102.0721 C214.9909,102.4221 215.1379,102.5311 215.3579,102.6961 C215.6509,102.9141 216.0149,103.1871 216.4359,103.8431 C216.8619,104.5071 216.9499,104.9601 217.0219,105.3251 C217.0759,105.6021 217.1099,105.7691 217.3289,106.1131 C217.5799,106.5041 217.7319,106.6411 217.9409,106.8301 C218.1899,107.0561 218.4989,107.3361 218.8939,107.9511 C219.1039,108.2801 219.2429,108.3731 219.4739,108.5271 C219.7759,108.7291 220.1899,109.0061 220.6249,109.6861 C221.0299,110.3171 221.1449,110.7321 221.2379,111.0661 C221.3119,111.3321 221.3639,111.5251 221.6069,111.9021 C222.0389,112.5771 222.1219,113.0641 222.1829,113.4191 C222.2299,113.6951 222.2579,113.8611 222.4719,114.1941 C222.6579,114.4861 222.7829,114.5551 223.0319,114.6941 C223.3749,114.8841 223.8459,115.1461 224.3049,115.8621 C224.7799,116.6021 224.7919,117.1691 224.8019,117.5821 C224.8089,117.8801 224.8119,118.0031 224.9829,118.2711 C225.2129,118.6301 225.3589,118.7441 225.5789,118.9161 C225.8619,119.1371 226.2129,119.4111 226.6279,120.0591 C226.9359,120.5381 227.1029,120.7701 227.2699,121.0011 C227.4539,121.2561 227.6379,121.5101 227.9759,122.0391 C228.3319,122.5951 228.4859,122.9131 228.6199,123.1951 C228.7459,123.4571 228.8549,123.6841 229.1449,124.1361 C229.5439,124.7581 229.6649,125.1631 229.7639,125.4891 C229.8439,125.7571 229.9029,125.9511 230.1509,126.3381 C230.2809,126.5411 230.3639,126.5691 230.6769,126.6711 C231.1039,126.8111 231.7499,127.0221 232.2649,127.8261 C232.6609,128.4451 232.7849,128.8451 232.8859,129.1671 C232.9689,129.4371 233.0299,129.6311 233.2789,130.0211 C233.7209,130.7101 233.7899,131.2141 233.8399,131.5821 C233.8779,131.8641 233.8999,132.0181 234.1039,132.3361 C234.3489,132.7191 234.5009,132.8501 234.7119,133.0331 C234.9719,133.2561 235.2949,133.5351 235.6969,134.1621 C236.0149,134.6591 236.1799,134.8991 236.3459,135.1411 C236.5179,135.3931 236.6919,135.6461 237.0209,136.1591 C237.3489,136.6721 237.5069,136.9351 237.6639,137.1951 C237.8169,137.4481 237.9679,137.6981 238.2849,138.1941 C238.6899,138.8251 238.8059,139.2401 238.8989,139.5731 C238.9729,139.8391 239.0269,140.0321 239.2689,140.4091 C239.6079,140.9391 239.7599,141.2141 239.9119,141.4901 C240.0499,141.7381 240.1869,141.9861 240.4919,142.4621 C240.7329,142.8371 240.8849,142.9651 241.0949,143.1421 C241.3609,143.3661 241.6919,143.6431 242.0959,144.2751 C242.3059,144.6021 242.4459,144.6951 242.6759,144.8481 C242.9789,145.0501 243.3939,145.3271 243.8289,146.0071 C244.2299,146.6331 244.3499,147.0411 244.4469,147.3691 C244.5249,147.6371 244.5809,147.8311 244.8269,148.2151 L246.1169,150.2311 C246.3769,150.6351 246.5349,150.7871 246.7349,150.9801 C246.9829,151.2181 247.2629,151.4881 247.6489,152.0901 C247.9669,152.5871 248.1299,152.8351 248.2909,153.0821 C248.4569,153.3361 248.6219,153.5891 248.9489,154.1001 C249.3779,154.7681 249.4639,155.2261 249.5319,155.5951 C249.5849,155.8711 249.6159,156.0381 249.8339,156.3791 C250.2149,156.9731 250.3489,157.3311 250.4669,157.6471 C250.5669,157.9111 250.6449,158.1211 250.9099,158.5361 C251.1279,158.8761 251.2669,158.9741 251.4959,159.1361 C251.8019,159.3531 252.1829,159.6221 252.6109,160.2901 C252.9699,160.8511 253.1199,161.1731 253.2539,161.4581 C253.3759,161.7201 253.4819,161.9461 253.7689,162.3941 C254.1739,163.0261 254.2889,163.4411 254.3819,163.7751 C254.4569,164.0411 254.5109,164.2341 254.7529,164.6131 C254.9909,164.9851 255.1449,165.1111 255.3559,165.2841 C255.6259,165.5071 255.9629,165.7841 256.3709,166.4221 C256.7499,167.0141 256.8859,167.3691 257.0049,167.6841 C257.1069,167.9501 257.1869,168.1591 257.4529,168.5771 C257.7529,169.0431 257.9229,169.2631 258.0939,169.4841 C258.2919,169.7401 258.4899,169.9941 258.8379,170.5371 C259.0349,170.8451 259.1599,170.9191 259.4079,171.0691 C259.7359,171.2641 260.1849,171.5331 260.6349,172.2361 C261.0079,172.8181 261.1489,173.1611 261.2739,173.4661 C261.3789,173.7231 261.4699,173.9461 261.7439,174.3741 C262.1279,174.9731 262.2589,175.3361 262.3749,175.6571 C262.4709,175.9211 262.5459,176.1301 262.8099,176.5411 C263.1969,177.1471 263.3249,177.5161 263.4379,177.8411 C263.5289,178.1051 263.6009,178.3121 263.8609,178.7181 C264.0569,179.0231 264.1809,179.0971 264.4289,179.2451 C264.7569,179.4411 265.2069,179.7081 265.6569,180.4111 C266.0239,180.9841 266.1689,181.3181 266.2979,181.6141 C266.4099,181.8731 266.5079,182.0971 266.7889,182.5351 C267.0519,182.9461 267.2099,183.1011 267.4109,183.2971 C267.6559,183.5361 267.9319,183.8081 268.3179,184.4091 C268.7429,185.0741 268.8329,185.5271 268.9059,185.8911 C268.9609,186.1701 268.9939,186.3381 269.2169,186.6851 C269.5919,187.2711 269.7319,187.6181 269.8549,187.9261 C269.9579,188.1831 270.0469,188.4061 270.3199,188.8321 C270.5289,189.1581 270.6609,189.2441 270.9019,189.4021 C271.2099,189.6031 271.6329,189.8791 272.0729,190.5671 C272.4679,191.1831 272.5949,191.5811 272.6969,191.9021 C272.7809,192.1631 272.8469,192.3691 273.1009,192.7651 C273.3989,193.2311 273.2639,193.8491 272.7989,194.1471 C272.6319,194.2541 272.4449,194.3051 272.2599,194.3051" id="Fill-227" fill="#000" blush:i="0.2.0.0.0.0.0.3"/><path d="M302.6398,103.557 C302.3068,103.557 301.9818,103.392 301.7918,103.089 C301.3388,102.368 301.2988,101.831 301.2688,101.44 C301.2468,101.151 301.2368,101.005 301.0468,100.704 C300.7458,100.226 300.5768,99.998 300.4078,99.771 C300.2148,99.511 300.0228,99.252 299.6798,98.707 C299.3198,98.134 299.1728,97.802 299.0438,97.509 C298.9268,97.245 298.8268,97.017 298.5438,96.567 C298.3338,96.234 298.1948,96.138 297.9618,95.981 C297.6578,95.776 297.2418,95.494 296.8078,94.805 C296.3688,94.105 296.3048,93.596 296.2578,93.224 C296.2218,92.94 296.2028,92.784 295.9988,92.459 C295.7828,92.116 295.6428,92.015 295.4108,91.85 C295.1028,91.63 294.7188,91.356 294.2928,90.677 C293.9138,90.075 293.7838,89.711 293.6668,89.392 C293.5708,89.123 293.4938,88.911 293.2288,88.49 C292.8598,87.902 292.7198,87.555 292.5968,87.248 C292.4928,86.988 292.4028,86.762 292.1278,86.328 C291.9588,86.057 291.8468,86.002 291.5768,85.87 C291.1978,85.686 290.6798,85.434 290.2058,84.68 C289.8278,84.08 289.6968,83.719 289.5788,83.401 C289.4818,83.132 289.4038,82.919 289.1378,82.497 C288.7128,81.821 288.6298,81.359 288.5638,80.988 C288.5128,80.707 288.4828,80.537 288.2638,80.19 C288.0558,79.859 287.9158,79.765 287.6848,79.61 C287.3788,79.405 286.9598,79.123 286.5268,78.434 C286.2428,77.981 286.0798,77.788 285.8938,77.567 C285.6888,77.324 285.4568,77.047 285.0988,76.478 C284.6458,75.756 284.6048,75.22 284.5748,74.828 C284.5528,74.538 284.5418,74.393 284.3518,74.091 C284.0898,73.675 283.9328,73.517 283.7328,73.317 C283.4908,73.075 283.2148,72.799 282.8338,72.194 C282.5098,71.678 282.3508,71.418 282.1918,71.16 C282.0358,70.905 281.8788,70.65 281.5608,70.144 C281.3068,69.74 281.1478,69.588 280.9468,69.397 C280.7038,69.167 280.4038,68.882 280.0148,68.264 C279.5838,67.578 279.5058,67.085 279.4498,66.725 C279.4068,66.447 279.3798,66.279 279.1668,65.941 C278.8718,65.471 278.7018,65.251 278.5298,65.032 C278.3278,64.772 278.1258,64.513 277.7778,63.958 C277.4968,63.512 277.3348,63.326 277.1468,63.109 C276.9358,62.865 276.6968,62.589 276.3338,62.013 C276.1098,61.655 275.9618,61.543 275.7408,61.374 C275.4468,61.152 275.0808,60.874 274.6618,60.209 C274.3288,59.679 274.1748,59.405 274.0208,59.132 C273.8768,58.877 273.7348,58.624 273.4228,58.13 C272.9328,57.349 272.9668,56.714 272.9898,56.294 C273.0058,55.979 273.0118,55.872 272.8588,55.629 C272.5548,55.146 272.3868,54.914 272.2178,54.684 C272.0298,54.425 271.8398,54.165 271.4998,53.624 C271.1628,53.089 271.0098,52.812 270.8568,52.536 C270.7168,52.283 270.5768,52.03 270.2698,51.541 C269.9678,51.061 269.7988,50.831 269.6288,50.603 C269.4378,50.343 269.2468,50.084 268.9048,49.539 C268.6188,49.084 268.4568,48.891 268.2698,48.666 C268.0668,48.423 267.8358,48.147 267.4788,47.578 C267.2888,47.276 267.1618,47.202 266.9108,47.057 C266.5698,46.861 266.1028,46.591 265.6488,45.869 C265.2998,45.313 265.1448,44.998 265.0088,44.721 C264.8858,44.471 264.7628,44.221 264.4678,43.752 C264.0518,43.091 263.9558,42.647 263.8798,42.29 C263.8208,42.016 263.7818,41.834 263.5538,41.472 C263.2218,40.945 263.0648,40.677 262.9068,40.409 C262.7578,40.156 262.6088,39.901 262.2958,39.404 C262.0598,39.028 261.9058,38.901 261.6918,38.724 C261.4168,38.497 261.0758,38.215 260.6668,37.567 C260.3908,37.126 260.2268,36.944 260.0368,36.733 C259.8178,36.489 259.5688,36.212 259.2008,35.627 C258.7698,34.941 258.6908,34.449 258.6328,34.089 C258.5888,33.809 258.5618,33.64 258.3478,33.3 C258.0308,32.796 257.8668,32.548 257.7018,32.3 C257.5308,32.042 257.3588,31.785 257.0298,31.262 C256.6868,30.715 256.5358,30.429 256.3848,30.143 C256.2518,29.891 256.1188,29.638 255.8168,29.157 C255.5228,28.689 255.663031,28.072 256.1308,27.778 C256.5998,27.483 257.2158,27.6238322 257.5098,28.093 C257.8528,28.639 258.0038,28.925 258.1548,29.21 C258.2868,29.463 258.4198,29.715 258.7228,30.198 C259.0378,30.699 259.2028,30.947 259.3678,31.194 C259.5388,31.452 259.7098,31.71 260.0408,32.236 C260.4718,32.922 260.5508,33.414 260.6088,33.774 C260.6538,34.053 260.6798,34.222 260.8938,34.563 C261.1698,35.002 261.3338,35.184 261.5238,35.395 C261.7438,35.639 261.9928,35.916 262.3608,36.502 C262.5968,36.878 262.7508,37.005 262.9648,37.182 C263.2398,37.409 263.5808,37.691 263.9898,38.34 C264.3178,38.862 264.4738,39.129 264.6298,39.395 C264.7818,39.651 264.9308,39.905 265.2468,40.408 C265.6618,41.069 265.7578,41.512 265.8338,41.869 C265.8938,42.143 265.9328,42.325 266.1608,42.687 C266.5118,43.245 266.6608,43.547 266.8038,43.839 C266.9258,44.088 267.0488,44.337 267.3418,44.805 C267.5318,45.107 267.6588,45.18 267.9108,45.325 C268.2508,45.522 268.7178,45.791 269.1718,46.514 C269.4578,46.968 269.6188,47.161 269.8068,47.386 C270.0098,47.63 270.2408,47.907 270.5978,48.475 C270.9008,48.956 271.0698,49.186 271.2388,49.415 C271.4298,49.674 271.6208,49.933 271.9628,50.476 C272.2998,51.012 272.4528,51.289 272.6068,51.566 C272.7458,51.819 272.8868,52.072 273.1938,52.56 C273.4968,53.043 273.6648,53.275 273.8338,53.505 C274.0228,53.764 274.2118,54.024 274.5518,54.565 C275.0418,55.345 275.0088,55.98 274.9868,56.401 C274.9698,56.707 274.9638,56.823 275.1168,57.066 C275.4528,57.599 275.6078,57.873 275.7628,58.149 C275.9058,58.401 276.0478,58.655 276.3558,59.145 C276.5798,59.501 276.7268,59.613 276.9498,59.782 C277.2438,60.004 277.6098,60.283 278.0278,60.949 C278.3078,61.395 278.4698,61.581 278.6588,61.798 C278.8688,62.042 279.1088,62.318 279.4708,62.894 C279.7658,63.364 279.9368,63.583 280.1088,63.803 C280.3098,64.063 280.5118,64.322 280.8608,64.876 C281.2908,65.562 281.3688,66.055 281.4258,66.415 C281.4688,66.694 281.4948,66.862 281.7078,67.2 C281.9618,67.604 282.1208,67.755 282.3228,67.947 C282.5648,68.176 282.8658,68.461 283.2538,69.079 C283.5778,69.594 283.7378,69.854 283.8968,70.114 C284.0528,70.369 284.2088,70.622 284.5278,71.129 C284.7888,71.545 284.9468,71.703 285.1468,71.903 C285.3888,72.146 285.6638,72.42 286.0448,73.027 C286.4978,73.748 286.5388,74.285 286.5698,74.676 C286.5908,74.966 286.6018,75.111 286.7918,75.413 C287.0768,75.866 287.2378,76.057 287.4238,76.28 C287.6288,76.523 287.8618,76.799 288.2198,77.37 C288.4278,77.7 288.5678,77.793 288.7988,77.95 C289.1048,78.155 289.5238,78.435 289.9568,79.125 C290.3818,79.802 290.4648,80.263 290.5318,80.634 C290.5818,80.915 290.6128,81.085 290.8308,81.433 C291.2088,82.034 291.3408,82.395 291.4578,82.713 C291.5558,82.982 291.6338,83.194 291.8998,83.616 C292.0688,83.886 292.1808,83.941 292.4518,84.073 C292.8298,84.257 293.3478,84.509 293.8218,85.263 C294.1918,85.85 294.3298,86.198 294.4528,86.504 C294.5578,86.765 294.6488,86.991 294.9218,87.425 C295.3008,88.029 295.4318,88.391 295.5478,88.711 C295.6448,88.98 295.7218,89.192 295.9868,89.613 C296.2028,89.957 296.3428,90.057 296.5748,90.223 C296.8818,90.443 297.2658,90.717 297.6928,91.395 C298.1318,92.094 298.1958,92.604 298.2428,92.975 C298.2788,93.26 298.2978,93.416 298.5008,93.74 C298.7108,94.073 298.8508,94.167 299.0828,94.326 C299.3868,94.531 299.8038,94.813 300.2378,95.502 C300.5978,96.077 300.7438,96.409 300.8728,96.702 C300.9908,96.965 301.0908,97.194 301.3728,97.644 C301.6738,98.121 301.8428,98.349 302.0128,98.577 C302.2048,98.836 302.3978,99.095 302.7408,99.64 C303.1938,100.361 303.2338,100.898 303.2638,101.289 C303.2858,101.578 303.2958,101.724 303.4858,102.026 C303.7798,102.493 303.6388,103.111 303.1708,103.404 C303.0048,103.508 302.8218,103.557 302.6398,103.557" id="Fill-229" fill="#000" blush:i="0.2.0.0.0.0.0.4"/></g></g></g></g><g id="Upper Body" transform="translate(-1.000000, 0.000000) scale(1 1)" blush:width="625" blush:height="676" blush:component="Upper Body" blush:i="0.2.0.1" blush:value="Laptop" blush:viewBox="150.16233766233768 270.4 304.3831168831168 212.93999999999983"><g id="Upper Body/Laptop" stroke="none" stroke-width="1" fill="none" fill-rule="evenodd" blush:viewBox="150.16233766233768 270.4 304.3831168831168 212.93999999999983" blush:i="0.2.0.1.0"><g id="Group-691" transform="translate(152.500000, 272.500000)" blush:i="0.2.0.1.0.0"><g id="Group-453" transform="translate(0.000000, 0.095000)" blush:i="0.2.0.1.0.0.0"><path d="M241.5489,174.4264 L262.3799,74.3814 C262.3799,74.3814 252.8759,47.1744 212.0979,39.9614 C212.0979,39.9614 211.5509,15.4834 160.0019,15.4834 C108.4529,15.4834 106.8899,38.6954 106.8899,38.6954 C106.8899,38.6954 -4.3451,56.6524 0.2789,139.0164 C0.2789,139.0164 6.1749,190.7654 71.0239,182.9044 C70.9179,185.7814 71.5209,189.0814 73.9719,191.7894 C79.9819,198.4274 91.6929,197.6654 98.3559,196.5624 C101.1019,196.1074 103.8799,196.8674 106.1169,198.5244 C108.6669,200.4134 113.3329,202.5834 121.5689,203.0954 C127.8529,203.4864 132.4689,202.2684 135.7249,200.6984 C139.4069,198.9254 143.7659,199.4444 146.8579,202.1154 C150.5619,205.3184 157.1519,208.6544 168.7689,209.4994 C182.7509,210.5184 189.9819,205.5454 193.5739,201.2484 C196.0219,198.3214 199.8399,196.8864 203.5659,197.7124 C207.7369,198.6374 213.2789,199.0844 218.4979,197.0464 C220.6419,196.2094 223.0059,196.1594 225.1979,196.8604 C230.4509,198.5374 240.5249,200.6714 249.3079,196.2434 C257.8439,191.9404 255.8429,175.1594 241.5489,174.4264" id="Fill-429" fill="#00A378" blush:i="0.2.0.1.0.0.0.0"/><path d="M273.8741,181.274 C273.8741,181.274 301.1821,179.927 301.8441,150.795 C302.5221,120.91 284.6001,114.814 273.8741,114.071 L273.8741,181.274 Z" id="Fill-431" fill="#ef9e89" blush:color="Skin-500" blush:i="0.2.0.1.0.0.0.1"/><path d="M119.8228,61.6696 C119.6548,61.6696 119.4838,61.6416 119.3168,61.5816 C119.0848,61.4986 118.7918,61.4476 118.4808,61.3946 C117.9548,61.3036 117.3568,61.2006 116.7638,60.8986 C116.5298,60.7806 116.2918,60.6726 116.0558,60.5656 C115.5038,60.3156 114.9328,60.0556 114.3888,59.6776 C114.1598,59.5186 113.9158,59.3746 113.6738,59.2316 C113.1808,58.9396 112.6238,58.6076 112.1398,58.1576 C111.4738,57.5356 110.9048,56.8446 110.3308,56.1316 C109.8228,55.4986 109.6678,54.7816 109.5438,54.2056 C109.4948,53.9796 109.4268,53.6686 109.3678,53.5696 C109.2548,53.3816 109.0548,53.1666 108.8438,52.9396 C108.4708,52.5366 108.0478,52.0806 107.7658,51.4486 C107.4638,50.7696 107.4328,50.0936 107.4078,49.5516 C107.3948,49.2736 107.3828,48.9876 107.3338,48.8346 C107.2928,48.7406 107.0658,48.4956 106.9168,48.3326 C106.5068,47.8896 105.9968,47.3386 105.8268,46.5416 C105.6688,45.8046 105.7738,45.1216 105.8578,44.5726 C105.8978,44.3146 105.9428,44.0216 105.9268,43.8866 C105.8138,42.9666 105.7868,42.1636 105.7628,41.4546 L105.7588,41.3186 C105.7388,40.7736 105.6888,40.5656 105.6348,40.3466 C105.5308,39.9116 105.4568,39.5126 105.5358,38.6786 C105.6128,37.8536 106.3368,37.2416 107.1708,37.3256 C107.9948,37.4036 108.5998,38.1356 108.5218,38.9606 C108.4838,39.3616 108.4998,39.4276 108.5518,39.6426 C108.6428,40.0226 108.7278,40.4286 108.7568,41.2136 L108.7608,41.3526 C108.7828,41.9996 108.8078,42.7326 108.9048,43.5226 C108.9708,44.0676 108.8928,44.5786 108.8228,45.0296 C108.7708,45.3666 108.7178,45.7156 108.7598,45.9126 C108.7828,45.9326 108.9858,46.1516 109.1198,46.2966 C109.4958,46.7036 109.9638,47.2106 110.1908,47.9216 C110.3608,48.4536 110.3848,48.9636 110.4048,49.4136 C110.4198,49.7346 110.4348,50.0666 110.5078,50.2306 C110.5858,50.4046 110.8178,50.6556 111.0438,50.8986 C111.3348,51.2126 111.6648,51.5676 111.9378,52.0216 C112.2548,52.5476 112.3778,53.1156 112.4758,53.5726 C112.5258,53.8066 112.6018,54.1596 112.6708,54.2536 C113.1908,54.8996 113.6658,55.4776 114.1858,55.9646 C114.4318,56.1926 114.8068,56.4156 115.2038,56.6496 C115.5078,56.8306 115.8118,57.0136 116.0998,57.2136 C116.4218,57.4366 116.8468,57.6296 117.2988,57.8346 C117.5718,57.9596 117.8488,58.0856 118.1218,58.2246 C118.3118,58.3206 118.6418,58.3776 118.9908,58.4386 C119.3938,58.5076 119.8508,58.5866 120.3288,58.7576 C121.1078,59.0366 121.5138,59.8956 121.2348,60.6756 C121.0148,61.2876 120.4378,61.6696 119.8228,61.6696" id="Fill-433" fill="#000" blush:i="0.2.0.1.0.0.0.2"/><path d="M202.3526,60.4244 C201.7886,60.4244 201.2476,60.1044 200.9926,59.5584 C200.6416,58.8074 200.9666,57.9144 201.7176,57.5654 C201.9406,57.4604 202.1656,57.3614 202.3886,57.2634 C202.8976,57.0404 203.3766,56.8304 203.7446,56.5864 C203.9586,56.4444 204.1846,56.1544 204.4226,55.8484 C204.6536,55.5524 204.9156,55.2174 205.2426,54.9144 C205.5096,54.6664 205.7946,54.4434 206.0796,54.2234 C206.4166,53.9614 206.7356,53.7144 206.9256,53.4724 C207.1016,53.2484 207.2406,52.8994 207.3886,52.5294 C207.5216,52.1964 207.6716,51.8204 207.8796,51.4514 C208.1536,50.9714 208.4946,50.6014 208.7946,50.2754 C209.0036,50.0484 209.2416,49.7914 209.3006,49.6414 C209.4206,49.3444 209.5536,49.0514 209.6856,48.7604 C209.8926,48.3054 210.0876,47.8754 210.1886,47.5014 C210.2196,47.3834 210.1416,46.9934 210.0946,46.7614 C209.9966,46.2714 209.8846,45.7164 209.9816,45.1084 C210.0636,44.5904 210.2006,44.1354 210.3206,43.7334 C210.4216,43.3934 210.5176,43.0724 210.5306,42.8684 C210.5716,42.1714 210.6306,41.8004 210.6746,41.5294 C210.7196,41.2504 210.7346,41.1554 210.6896,40.6284 C210.6776,40.4924 210.5116,40.1934 210.3786,39.9514 C210.1566,39.5484 209.9036,39.0904 209.7826,38.5264 C209.6616,37.9584 209.6936,37.4174 209.7186,36.9834 C209.7336,36.7274 209.7546,36.3774 209.7116,36.2594 L209.5776,35.8744 C209.3606,35.2564 209.1566,34.6724 208.8986,34.1674 C208.8186,34.0124 208.5716,33.7864 208.3316,33.5704 C208.0116,33.2784 207.6476,32.9474 207.3456,32.5064 C207.1256,32.1844 206.9406,31.8404 206.7576,31.4964 C206.5706,31.1434 206.3936,30.8094 206.1956,30.5794 C205.8216,30.1504 205.5926,29.6754 205.3916,29.2574 C205.2576,28.9824 205.1076,28.6694 204.9916,28.5614 C204.9346,28.5314 204.6316,28.4564 204.4316,28.4064 C203.9176,28.2784 203.2776,28.1194 202.7206,27.6844 C202.4046,27.4364 202.1146,27.1574 201.8266,26.8764 C201.5396,26.5974 201.2676,26.3324 200.9996,26.1554 C200.7706,26.0024 200.4426,25.8764 200.0946,25.7414 C199.7226,25.5984 199.2996,25.4354 198.8836,25.1974 L198.3266,24.8754 C197.8446,24.5954 197.3686,24.3174 196.8656,24.0684 C196.2176,23.7484 195.7966,23.2294 195.4576,22.8124 C195.3276,22.6514 195.1286,22.4064 195.0406,22.3504 C194.8906,22.2874 194.5616,22.2544 194.2426,22.2234 C193.7736,22.1764 193.2416,22.1224 192.6986,21.9184 C192.3556,21.7884 191.9706,21.6934 191.5626,21.5914 C191.1786,21.4954 190.7976,21.3994 190.4266,21.2764 C190.1306,21.1784 189.7736,21.1234 189.3956,21.0674 C189.0016,21.0074 188.5556,20.9394 188.1076,20.8094 C187.7906,20.7174 187.4816,20.6204 187.1746,20.5254 C186.7296,20.3864 186.2906,20.2484 185.8486,20.1364 C185.1716,19.9644 184.6496,19.5904 184.2286,19.2904 C184.0546,19.1654 183.7896,18.9764 183.6886,18.9454 C183.5266,18.9104 183.2046,18.9534 182.8926,18.9974 C182.4066,19.0654 181.8556,19.1404 181.2556,19.0284 C180.5956,18.9034 180.0516,18.6114 179.6156,18.3754 C179.4176,18.2694 179.1206,18.1094 179.0126,18.0914 C178.4136,17.9974 177.8526,17.9354 177.3466,17.8784 L176.6526,17.7984 C176.2116,17.7444 176.1376,17.7744 175.9746,17.8374 C175.5666,17.9984 175.1026,18.1514 174.2786,18.0964 C173.4526,18.0404 172.8276,17.3244 172.8836,16.4984 C172.9386,15.6714 173.6406,15.0434 174.4816,15.1034 C174.6976,15.1164 174.7116,15.1104 174.8726,15.0474 C175.3516,14.8584 175.9146,14.6854 177.0206,14.8204 L177.6806,14.8984 C178.2256,14.9584 178.8306,15.0274 179.4766,15.1274 C180.0916,15.2244 180.5946,15.4954 181.0396,15.7354 C181.3316,15.8934 181.6086,16.0414 181.8106,16.0794 C181.9246,16.1014 182.2486,16.0574 182.4826,16.0254 C183.0016,15.9534 183.6456,15.8644 184.3376,16.0174 C185.0186,16.1664 185.5486,16.5454 185.9746,16.8504 C186.1786,16.9964 186.4576,17.1954 186.5856,17.2284 C187.0796,17.3534 187.5706,17.5064 188.0696,17.6614 C188.3566,17.7514 188.6466,17.8424 188.9416,17.9274 C189.2016,18.0024 189.5136,18.0504 189.8456,18.1004 C190.3076,18.1704 190.8316,18.2504 191.3696,18.4284 C191.6676,18.5274 191.9776,18.6024 192.2886,18.6804 C192.7616,18.7984 193.2506,18.9194 193.7576,19.1114 C193.9316,19.1764 194.2416,19.2074 194.5406,19.2374 C195.0616,19.2894 195.6526,19.3484 196.2536,19.6084 C196.9716,19.9174 197.4226,20.4744 197.7866,20.9214 C197.9176,21.0834 198.1186,21.3284 198.2066,21.3854 C198.7586,21.6574 199.2946,21.9684 199.8346,22.2824 L200.3696,22.5914 C200.5896,22.7174 200.8746,22.8274 201.1756,22.9444 C201.6356,23.1214 202.1576,23.3224 202.6596,23.6554 C203.1596,23.9874 203.5636,24.3814 203.9186,24.7284 C204.1296,24.9334 204.3386,25.1414 204.5696,25.3204 C204.6476,25.3684 204.9546,25.4454 205.1566,25.4954 C205.7346,25.6394 206.4546,25.8194 207.0446,26.3734 C207.5666,26.8624 207.8586,27.4674 208.0926,27.9534 C208.2186,28.2154 208.3496,28.4864 208.4606,28.6134 C208.8846,29.1024 209.1636,29.6274 209.4096,30.0914 C209.5396,30.3374 209.6666,30.5844 209.8236,30.8144 C209.9256,30.9644 210.1316,31.1514 210.3496,31.3494 C210.7466,31.7094 211.2406,32.1584 211.5696,32.8014 C211.9206,33.4884 212.1686,34.1974 212.4096,34.8844 L212.5386,35.2524 C212.7856,35.9454 212.7456,36.6184 212.7136,37.1594 C212.6976,37.4404 212.6796,37.7304 212.7156,37.8994 C212.7446,38.0284 212.8826,38.2794 213.0046,38.5014 C213.2756,38.9904 213.6116,39.6004 213.6776,40.3704 C213.7496,41.2074 213.7106,41.5474 213.6356,42.0084 C213.6016,42.2244 213.5566,42.5024 213.5246,43.0444 C213.4926,43.5974 213.3406,44.1034 213.1946,44.5934 C213.0916,44.9354 212.9956,45.2594 212.9446,45.5784 C212.9356,45.6734 212.9966,45.9724 213.0366,46.1694 C213.1536,46.7554 213.2996,47.4854 213.0846,48.2814 C212.9206,48.8924 212.6656,49.4554 212.4166,50.0004 C212.3026,50.2514 212.1876,50.5044 212.0846,50.7594 C211.8206,51.4194 211.3666,51.9124 211.0006,52.3094 C210.7906,52.5364 210.5916,52.7524 210.4896,52.9324 C210.3656,53.1524 210.2726,53.3974 210.1746,53.6424 C209.9646,54.1664 209.7276,54.7614 209.2856,55.3244 C208.8666,55.8594 208.3616,56.2494 207.9156,56.5944 C207.7016,56.7614 207.4826,56.9284 207.2796,57.1154 C207.1306,57.2534 206.9646,57.4674 206.7896,57.6934 C206.4486,58.1294 206.0256,58.6724 205.4046,59.0854 C204.8206,59.4734 204.1976,59.7464 203.5946,60.0114 C203.3926,60.1004 203.1886,60.1894 202.9856,60.2834 C202.7806,60.3794 202.5646,60.4244 202.3526,60.4244" id="Fill-435" fill="#000" blush:i="0.2.0.1.0.0.0.3"/><path d="M159.5821,72.0865 C159.5451,72.0865 159.5091,72.0845 159.4731,72.0825 C158.6461,72.0235 158.0241,71.3055 158.0841,70.4785 L158.9271,58.7765 C158.9861,57.9495 159.7451,57.3345 160.5301,57.3885 C161.3561,57.4475 161.9781,58.1655 161.9191,58.9925 L161.0761,70.6935 C161.0191,71.4835 160.3611,72.0865 159.5821,72.0865" id="Fill-437" fill="#000" blush:i="0.2.0.1.0.0.0.4"/><path d="M175.6026,72.0865 C174.9206,72.0865 174.3046,71.6195 174.1426,70.9285 L171.4016,59.2275 C171.2126,58.4205 171.7136,57.6125 172.5206,57.4245 C173.3196,57.2345 174.1336,57.7355 174.3236,58.5425 L177.0646,70.2435 C177.2526,71.0505 176.7516,71.8575 175.9456,72.0465 C175.8316,72.0735 175.7156,72.0865 175.6026,72.0865" id="Fill-439" fill="#000" blush:i="0.2.0.1.0.0.0.5"/><path d="M60.378,185.4069 C59.747,185.4069 59.191,185.2019 58.739,185.0359 C58.474,184.9379 58.173,184.8279 58.02,184.8279 L58.018,184.8279 C57.75,184.8289 57.437,184.8689 57.106,184.9119 C56.654,184.9699 56.16,185.0339 55.59,185.0249 L54.933,185.0139 C54.353,185.0059 53.762,184.9959 53.158,184.9689 C52.883,184.9559 52.606,184.9469 52.327,184.9379 C51.799,184.9219 51.265,184.9029 50.723,184.8639 C50.444,184.8449 50.125,184.8609 49.784,184.8789 C49.328,184.9029 48.813,184.9289 48.271,184.8749 C48.048,184.8519 47.745,184.8859 47.424,184.9229 C46.938,184.9769 46.387,185.0389 45.79,184.9589 C45.23,184.8849 44.728,184.7109 44.284,184.5569 C43.964,184.4459 43.661,184.3419 43.404,184.2989 C42.776,184.1919 42.265,183.9349 41.813,183.7089 C41.533,183.5679 41.27,183.4349 41.082,183.3959 C40.819,183.3429 40.506,183.3219 40.174,183.3019 C39.708,183.2709 39.181,183.2379 38.634,183.0999 C38.028,182.9479 37.538,182.6669 37.106,182.4189 C36.834,182.2629 36.577,182.1159 36.377,182.0549 C36.277,182.0339 35.962,182.0679 35.755,182.0909 C35.205,182.1519 34.519,182.2259 33.805,181.9699 C33.152,181.7349 32.665,181.3179 32.274,180.9839 C32.068,180.8079 31.835,180.6089 31.695,180.5499 C31.537,180.4809 31.241,180.4429 30.955,180.4049 C30.452,180.3399 29.827,180.2589 29.224,179.9499 C28.996,179.8339 28.706,179.7329 28.399,179.6269 C27.922,179.4609 27.383,179.2739 26.87,178.9599 C26.164,178.5259 25.942,177.6019 26.376,176.8959 C26.809,176.1899 27.732,175.9699 28.439,176.4019 C28.674,176.5469 29.019,176.6659 29.382,176.7929 C29.755,176.9219 30.178,177.0679 30.59,177.2789 C30.73,177.3509 31.055,177.3929 31.342,177.4299 C31.809,177.4909 32.337,177.5599 32.879,177.7929 C33.438,178.0319 33.873,178.4039 34.223,178.7029 C34.44,178.8879 34.686,179.0979 34.822,179.1479 C34.906,179.1649 35.221,179.1319 35.428,179.1089 C35.941,179.0529 36.578,178.9819 37.244,179.1829 C37.773,179.3429 38.211,179.5949 38.598,179.8159 C38.888,179.9819 39.161,180.1389 39.365,180.1909 C39.646,180.2609 39.995,180.2839 40.365,180.3069 C40.767,180.3329 41.222,180.3619 41.691,180.4589 C42.264,180.5779 42.739,180.8159 43.159,181.0269 C43.435,181.1659 43.72,181.3089 43.902,181.3399 C44.405,181.4249 44.862,181.5829 45.266,181.7219 C45.606,181.8399 45.926,181.9509 46.186,181.9849 C46.419,182.0169 46.746,181.9799 47.09,181.9409 C47.534,181.8919 48.038,181.8359 48.573,181.8899 C48.885,181.9219 49.245,181.9019 49.627,181.8829 C50.044,181.8609 50.478,181.8399 50.94,181.8719 C51.441,181.9089 51.936,181.9239 52.424,181.9399 C52.716,181.9489 53.007,181.9589 53.295,181.9709 C53.867,181.9979 54.428,182.0069 54.979,182.0139 L55.651,182.0259 C55.967,182.0339 56.339,181.9859 56.721,181.9359 C57.129,181.8839 57.551,181.8299 58.005,181.8279 L58.021,181.8279 C58.708,181.8279 59.3,182.0459 59.776,182.2209 C59.975,182.2939 60.274,182.4039 60.377,182.4069 C60.596,182.4009 60.9,182.2939 61.224,182.1809 C61.657,182.0289 62.149,181.8569 62.708,181.8279 C63.194,181.8019 63.653,181.8079 64.082,181.8149 C64.432,181.8209 64.758,181.8279 65.055,181.8039 C65.716,181.7529 66.036,181.7359 66.279,181.7219 C66.576,181.7069 66.747,181.6969 67.379,181.6269 C68.306,181.5219 68.877,181.6999 69.253,181.8179 C69.511,181.8989 69.597,181.9279 69.9,181.8929 C70.151,181.8669 70.198,181.8359 70.427,181.6849 C70.778,181.4529 71.311,181.1019 72.285,180.9979 C72.958,180.9259 73.297,180.9159 73.636,180.9059 C73.916,180.8979 74.197,180.8889 74.754,180.8299 C75.541,180.7469 75.986,180.8019 76.345,180.8469 C76.618,180.8819 76.8,180.9069 77.239,180.8579 C77.783,180.7999 78.052,180.7449 78.321,180.6899 C78.66,180.6209 78.999,180.5519 79.684,180.4779 C80.36,180.4059 80.702,180.3979 81.044,180.3899 C81.322,180.3839 81.601,180.3779 82.152,180.3179 C82.438,180.2879 82.507,180.2469 82.737,180.1079 C83.082,179.9019 83.603,179.5909 84.543,179.4889 C85.197,179.4199 85.527,179.4029 85.857,179.3859 C86.145,179.3709 86.433,179.3559 87.006,179.2949 C88.062,179.1809 88.723,179.5159 89.117,179.7169 C89.374,179.8469 89.382,179.8469 89.55,179.8309 C90.199,179.7609 90.524,179.7409 90.85,179.7209 C91.143,179.7029 91.435,179.6849 92.016,179.6229 L94.474,179.3619 C94.891,179.3169 95.046,179.2569 95.303,179.1559 C95.652,179.0199 96.087,178.8499 96.901,178.7629 C97.171,178.7339 97.232,178.6959 97.46,178.5529 C97.81,178.3309 98.338,177.9969 99.3,177.8939 C100.129,177.8129 100.863,178.4019 100.951,179.2259 C101.04,180.0499 100.443,180.7889 99.62,180.8779 C99.351,180.9059 99.289,180.9449 99.062,181.0889 C98.712,181.3089 98.184,181.6429 97.222,181.7469 C96.805,181.7909 96.649,181.8509 96.393,181.9519 C96.043,182.0879 95.608,182.2579 94.794,182.3439 L92.335,182.6059 C91.686,182.6759 91.36,182.6959 91.035,182.7159 C90.742,182.7339 90.45,182.7519 89.869,182.8139 C88.818,182.9289 88.153,182.5919 87.759,182.3909 C87.502,182.2609 87.496,182.2599 87.325,182.2779 C86.67,182.3479 86.34,182.3649 86.01,182.3819 C85.722,182.3959 85.435,182.4109 84.862,182.4719 C84.578,182.5029 84.509,182.5449 84.278,182.6819 C83.934,182.8879 83.412,183.2009 82.472,183.3019 C81.795,183.3739 81.454,183.3819 81.113,183.3889 C80.834,183.3959 80.556,183.4019 80.003,183.4619 C79.459,183.5199 79.19,183.5749 78.921,183.6299 C78.582,183.6989 78.243,183.7679 77.559,183.8419 C76.772,183.9269 76.324,183.8689 75.968,183.8239 C75.693,183.7899 75.513,183.7659 75.072,183.8129 C74.4,183.8859 74.062,183.8949 73.723,183.9049 C73.442,183.9129 73.161,183.9219 72.605,183.9809 C72.354,184.0079 72.307,184.0389 72.078,184.1889 C71.727,184.4219 71.194,184.7719 70.22,184.8769 C69.298,184.9769 68.731,184.7989 68.357,184.6809 C68.101,184.6009 68.018,184.5739 67.713,184.6079 C66.981,184.6899 66.783,184.6999 66.44,184.7189 C66.211,184.7299 65.91,184.7469 65.29,184.7959 C64.905,184.8259 64.489,184.8209 64.035,184.8149 C63.672,184.8079 63.28,184.8019 62.864,184.8239 C62.735,184.8309 62.459,184.9279 62.215,185.0119 C61.739,185.1789 61.147,185.3859 60.458,185.4059 C60.431,185.4069 60.404,185.4069 60.378,185.4069" id="Fill-441" fill="#000" blush:i="0.2.0.1.0.0.0.6"/><path d="M62.0967,114.5406 C61.2357,114.5406 60.7447,114.3706 60.3877,114.2476 C60.1417,114.1616 60.0177,114.1186 59.6607,114.1186 C59.2727,114.1186 59.1307,114.1616 58.8737,114.2386 C58.5277,114.3436 58.0527,114.4856 57.2227,114.4856 C56.1767,114.4856 55.5647,114.0966 55.1997,113.8636 C54.9637,113.7136 54.9587,113.7106 54.7867,113.7106 C54.2157,113.7106 53.9307,113.7256 53.6447,113.7386 C53.3227,113.7556 52.9987,113.7706 52.3537,113.7706 C52.0637,113.7706 51.9837,113.8076 51.7447,113.9126 C51.3867,114.0726 50.8447,114.3136 49.9167,114.3136 C49.1617,114.3136 48.7437,114.2316 48.4097,114.1656 C48.1387,114.1126 47.9437,114.0736 47.4807,114.0736 C47.1257,114.0736 47.0027,114.1166 46.7577,114.2026 C46.4007,114.3266 45.9097,114.4976 45.0477,114.4976 C44.1707,114.4976 43.6737,114.3126 43.3107,114.1796 C43.0677,114.0886 42.9557,114.0476 42.6177,114.0476 C41.9447,114.0476 41.6087,114.0186 41.2727,113.9896 C40.9997,113.9666 40.7277,113.9426 40.1837,113.9426 C39.7937,113.9426 39.6527,113.9846 39.3947,114.0616 C39.0487,114.1646 38.5757,114.3066 37.7467,114.3066 C36.8787,114.3066 36.3857,114.1316 36.0267,114.0036 C35.7757,113.9136 35.6607,113.8736 35.3107,113.8736 C34.4827,113.8736 33.8107,113.2016 33.8107,112.3736 C33.8107,111.5446 34.4827,110.8736 35.3107,110.8736 C36.1777,110.8736 36.6707,111.0486 37.0307,111.1766 C37.2817,111.2656 37.3967,111.3066 37.7467,111.3066 C38.1377,111.3066 38.2797,111.2636 38.5367,111.1866 C38.8827,111.0836 39.3557,110.9426 40.1837,110.9426 C40.8567,110.9426 41.1927,110.9716 41.5287,111.0006 C41.8007,111.0236 42.0737,111.0476 42.6177,111.0476 C43.4927,111.0476 43.9907,111.2306 44.3527,111.3656 C44.5977,111.4556 44.7087,111.4976 45.0477,111.4976 C45.4027,111.4976 45.5267,111.4546 45.7717,111.3686 C46.1287,111.2446 46.6187,111.0736 47.4807,111.0736 C48.2367,111.0736 48.6547,111.1566 48.9897,111.2226 C49.2597,111.2756 49.4547,111.3136 49.9167,111.3136 C50.2067,111.3136 50.2857,111.2786 50.5247,111.1726 C50.8827,111.0136 51.4247,110.7706 52.3537,110.7706 C52.9247,110.7706 53.2097,110.7576 53.4957,110.7426 C53.8187,110.7276 54.1417,110.7106 54.7867,110.7106 C55.8327,110.7106 56.4457,111.1006 56.8107,111.3336 C57.0457,111.4826 57.0507,111.4856 57.2227,111.4856 C57.6117,111.4856 57.7517,111.4436 58.0087,111.3666 C58.3557,111.2626 58.8297,111.1186 59.6607,111.1186 C60.5227,111.1186 61.0127,111.2886 61.3697,111.4126 C61.6167,111.4976 61.7407,111.5406 62.0967,111.5406 C62.6357,111.5406 62.9057,111.5156 63.1747,111.4896 C63.5147,111.4586 63.8547,111.4266 64.5347,111.4266 C65.1177,111.4266 65.4097,111.4156 65.7007,111.4056 C66.0177,111.3946 66.3357,111.3836 66.9717,111.3836 C67.4397,111.3836 67.6367,111.3456 67.9087,111.2936 C68.2427,111.2286 68.6587,111.1496 69.4107,111.1496 L71.8487,111.1546 C72.2087,111.1546 72.3327,111.1116 72.5817,111.0266 C72.9397,110.9046 73.4287,110.7366 74.2877,110.7366 C75.1347,110.7366 75.6177,110.8936 75.9697,111.0076 C76.2177,111.0876 76.3547,111.1326 76.7287,111.1326 C77.5647,111.1326 78.0417,111.2806 78.3907,111.3896 C78.6437,111.4676 78.7827,111.5116 79.1627,111.5116 C79.4577,111.5116 79.5387,111.4756 79.7807,111.3696 C80.1377,111.2136 80.6777,110.9776 81.6017,110.9776 C82.4507,110.9776 82.9347,111.1346 83.2867,111.2496 C83.5427,111.3326 83.6707,111.3746 84.0417,111.3746 C84.6677,111.3746 84.9807,111.3816 85.2937,111.3886 C85.5907,111.3946 85.8887,111.3996 86.4837,111.3996 C86.6867,111.3996 86.7107,111.3866 86.9467,111.2486 C87.3287,111.0236 87.9087,110.6856 88.9257,110.6856 C90.0017,110.6856 90.6237,111.1116 90.9957,111.3666 C91.2247,111.5226 91.2247,111.5226 91.3707,111.5226 C91.7647,111.5226 91.9077,111.4796 92.1667,111.4026 C92.5137,111.3006 92.9887,111.1586 93.8177,111.1586 C94.6457,111.1586 95.3177,111.8306 95.3177,112.6586 C95.3177,113.4876 94.6457,114.1586 93.8177,114.1586 C93.4247,114.1586 93.2817,114.2016 93.0227,114.2786 C92.6757,114.3816 92.2007,114.5226 91.3707,114.5226 C90.2947,114.5226 89.6727,114.0966 89.3007,113.8416 C89.0727,113.6856 89.0727,113.6856 88.9257,113.6856 C88.7217,113.6856 88.6977,113.6986 88.4617,113.8366 C88.0787,114.0616 87.5007,114.3996 86.4837,114.3996 C85.8577,114.3996 85.5447,114.3946 85.2317,114.3876 C84.9347,114.3816 84.6367,114.3746 84.0417,114.3746 C83.1937,114.3746 82.7097,114.2176 82.3577,114.1026 C82.1017,114.0196 81.9737,113.9776 81.6017,113.9776 C81.3057,113.9776 81.2247,114.0126 80.9837,114.1176 C80.6257,114.2746 80.0867,114.5116 79.1627,114.5116 C78.3257,114.5116 77.8487,114.3616 77.4987,114.2536 C77.2467,114.1756 77.1087,114.1326 76.7287,114.1326 C75.8807,114.1326 75.3987,113.9766 75.0457,113.8616 C74.7977,113.7816 74.6607,113.7366 74.2877,113.7366 C73.9277,113.7366 73.8037,113.7796 73.5547,113.8646 C73.1977,113.9876 72.7077,114.1546 71.8487,114.1546 L69.4107,114.1496 C68.9437,114.1496 68.7457,114.1866 68.4737,114.2396 C68.1397,114.3036 67.7237,114.3836 66.9717,114.3836 C66.3887,114.3836 66.0967,114.3936 65.8057,114.4036 C65.4887,114.4146 65.1697,114.4266 64.5347,114.4266 C63.9947,114.4266 63.7257,114.4516 63.4557,114.4776 C63.1167,114.5096 62.7767,114.5406 62.0967,114.5406" id="Fill-443" fill="#000" blush:i="0.2.0.1.0.0.0.7"/><path d="M88.6358,105.8483 C88.6358,105.8483 63.4068,110.9093 59.4538,135.1013 C55.9698,156.4213 64.5138,178.4283 90.6048,181.2743 L88.6358,105.8483 Z" id="Fill-445" fill="#ef9e89" blush:color="Skin-500" blush:i="0.2.0.1.0.0.0.8"/><path d="M86.0939984,74.0543 L88.4808,185.8853 C88.5198,187.7163 90.0148,189.1803 91.8468,189.1803 L270.5068,189.1803 C272.3668,189.1803 273.8738,187.6733 273.8738,185.8143 L273.8738,75.5063 C273.8738,73.6583 272.3838,72.1553 270.5358,72.1393 L89.4898,70.6161621 C87.5908,70.5993 86.0538,72.1563 86.0939984,74.0543" id="Fill-447" fill="#F8FBF8" blush:i="0.2.0.1.0.0.0.9"/><path d="M94.8738,74.0543 L97.1490047,185.8853 C97.1861813,187.7163 98.6112813,189.1803 100.357625,189.1803 L270.664227,189.1803 C272.437261,189.1803 273.8738,187.6733 273.8738,185.8143 L273.8738,75.5063 C273.8738,73.6583 272.453466,72.1553 270.691871,72.1393 L98.1108281,70.6161621 C96.3006174,70.5993 94.8354811,72.1563 94.8738,74.0543" id="Fill-447-Copy" fill="#AFDCFD" blush:i="0.2.0.1.0.0.0.10"/><path d="M176.1475,0.9069 L164.7485,0.9069 C159.5945,0.9069 155.2085,4.6009 154.2925,9.6419 C154.2825,9.7049 154.2735,9.7649 154.2635,9.8289 L154.2585,9.8619 L154.2585,9.8629 C154.2215,10.1079 154.1835,10.3579 154.1455,10.6069 C152.8195,19.3479 151.1815,30.0589 151.1815,30.0589 L186.6145,30.0589 L186.6865,22.2939 L186.7845,11.6419 C186.8385,5.7289 182.0605,0.9069 176.1475,0.9069" id="Fill-449" fill="#ef9e89" blush:color="Skin-500" blush:i="0.2.0.1.0.0.0.11"/><path d="M186.6143,30.0592 C172.7393,29.0832 168.9483,26.1082 169.0823,23.6312 C169.2013,21.4132 171.2863,21.7222 172.1973,21.7432 C176.2113,21.8322 186.6863,22.2932 186.6863,22.2932" id="Fill-451" fill="#430000" blush:i="0.2.0.1.0.0.0.12"/></g></g><circle id="Oval" fill="#F8FBF8" cx="342.5" cy="405.5" r="11.5" blush:i="0.2.0.1.0.1"/><path d="M223.5,449 L248,449 L248,449 L248,462 L223.5,462 C219.910149,462 217,459.089851 217,455.5 C217,451.910149 219.910149,449 223.5,449 Z" id="Rectangle" fill="#F8FBF8" blush:i="0.2.0.1.0.2"/></g></g><g id="Head" transform="translate(204.000000, 145.000000) scale(1 1)" blush:width="207" blush:height="243" blush:component="Head" blush:i="0.2.0.2" blush:value="Bob 1" blush:viewBox="94.99647887323943 87.48000000000002 55.88028169014085 63.18000000000006"><g id="Head/Bob 1" stroke="none" stroke-width="1" fill="none" fill-rule="evenodd" blush:viewBox="94.99647887323943 87.48000000000002 55.88028169014085 63.18000000000006" blush:i="0.2.0.2.0"><g id="Group-183" transform="translate(95.000000, 87.000000)" blush:i="0.2.0.2.0.0"><g id="Group-42" transform="translate(0.000000, 0.738000)" blush:i="0.2.0.2.0.0.0"><path d="M54.9296,31.2038 C53.3886,28.1558 48.8196,28.7868 47.4916,28.9828 C46.1766,23.4008 44.7596,18.4058 43.4726,15.9998 C40.7686,10.9418 32.5216,5.6278 19.3326,7.6688 C10.5756,9.0238 1.2496,17.1928 7.3066,31.4138 C7.3066,31.4138 9.0396,34.8608 8.2096,40.5458 C8.1186,41.1718 7.9886,42.0468 7.8326,43.0878 L7.8316,43.0958 C7.5686,44.8548 7.2276,47.1118 6.8546,49.5758 C6.8446,49.6388 6.8356,49.6988 6.8256,49.7628 L6.8206,49.7968 C6.7836,50.0418 6.7456,50.2918 6.7076,50.5408 C6.4786,53.1308 7.1846,61.6058 26.2626,61.7028 L39.2476,62.2278 L39.4456,62.2358 C39.4456,62.2358 43.7976,62.1878 46.4306,62.1878 C51.9056,62.1878 52.8456,56.9698 52.2306,53.1058 C51.9786,51.5178 51.0556,46.0908 49.8096,39.7868 C55.9216,37.8338 56.1566,33.6288 54.9296,31.2038" id="Fill-36" fill="#ef9e89" blush:color="Skin-500" blush:i="0.2.0.2.0.0.0.0"/><path d="M10.4984,5.7702 C0.0364,11.0572 0.0754,22.8722 0.8104,30.3042 C2.3514,45.8942 -2.3876,53.9892 4.3744,56.2762 C10.3324,58.2292 15.1654,53.3402 18.6454,48.0412 C19.4354,46.8392 19.8264,45.5922 20.0024,44.4802 C20.2894,42.6742 18.9954,41.0402 17.1864,40.7702 C14.9274,40.4322 12.0904,39.2672 12.0904,35.5432 C12.0904,29.3832 18.0174,29.8792 18.0174,29.8792 C18.0174,29.8792 21.2484,30.0412 23.8354,27.3912 C25.3734,25.8152 27.3364,24.7272 29.5024,24.3282 C34.1374,23.4712 41.6724,21.7402 45.6884,18.9882 C48.1094,17.3302 51.6834,10.6742 45.8084,4.7992 C38.6134,-2.3958 19.9924,0.9742 10.4984,5.7702" id="Fill-38" fill="#4d33a2" blush:color="Hair-500" blush:i="0.2.0.2.0.0.0.1"/><path d="M47.4222,37.0495 C47.5852,38.8315 50.7462,38.3315 50.4832,36.5565 C50.1752,34.4785 47.2312,34.9615 47.4222,37.0495" id="Fill-40" fill="#000" blush:i="0.2.0.2.0.0.0.2"/></g></g></g></g><g id="Expression" transform="translate(315.000000, 246.000000) scale(1 1)" blush:width="47" blush:height="53" blush:component="Expression" blush:i="0.2.0.3" blush:value="Smile" blush:viewBox="14.879796839729117 12.985 18.03611738148985 26.499999999999993"><g id="Expression/Smile" stroke="none" stroke-width="1" fill="none" fill-rule="evenodd" blush:viewBox="14.879796839729117 12.985 18.03611738148985 26.499999999999993" blush:i="0.2.0.3.0"><g id="Expression" transform="translate(14.000000, 12.000000)" fill="#000" blush:i="0.2.0.3.0.0"><path d="M8.5371,3.6102 C8.8431,6.5462 13.2671,6.1902 13.3041,3.3662 C13.3451,0.1732 8.1761,0.1392 8.5371,3.6102" id="Fill-95" blush:i="0.2.0.3.0.0.0"/><path d="M3.8824,24.6669 C10.1784,28.8049 17.2924,27.1859 17.6314,27.1049 C18.4374,26.9129 18.9354,26.1039 18.7434,25.2989 C18.5514,24.4919 17.7444,23.9949 16.9394,24.1859 C16.8054,24.2169 9.0204,25.9289 3.5054,20.5259 C2.9134,19.9499 1.9634,19.9569 1.3834,20.5479 C0.8044,21.1409 0.8144,22.0899 1.4064,22.6699 C2.2044,23.4509 3.0364,24.1109 3.8824,24.6669" id="Fill-97" blush:i="0.2.0.3.0.0.1"/></g></g></g><g id="Facial Hair" transform="translate(311.300000, 250.950000) scale(1 1)" blush:width="48" blush:height="58" blush:component="Facial Hair" blush:i="0.2.0.4" blush:value="None" blush:viewBox="84 101.5 0 0"><g id="Facial Hair/None" stroke="none" stroke-width="1" fill="none" fill-rule="evenodd" fill-opacity="0" blush:viewBox="84 101.5 0 0" blush:i="0.2.0.4.0"/></g><g id="Accesories" transform="translate(311.300000, 250.950000) scale(1 1)" blush:width="48" blush:height="58" blush:component="Accesories" blush:i="0.2.0.5" blush:value="None" blush:viewBox="84 101.5 0 0"><g id="Accesories/None" stroke="none" stroke-width="1" fill="none" fill-rule="evenodd" fill-opacity="0" blush:viewBox="84 101.5 0 0" blush:i="0.2.0.5.0"/></g></g></g></g></svg>