<svg viewBox="174.375 1.9308943089431523 1201.2500000000002 791.6666666666665" fill="none" xmlns="http://www.w3.org/2000/svg" xmlns:xlink="http://www.w3.org/1999/xlink" xmlns:blush="http://design.blush" overflow="visible" width="1201.2500000000002px" height="791.6666666666665px"><g id="Master/Backgrounds/Talking" blush:has-customizable-colors="true" blush:viewBox="170.5 -6.209150326797385 1209.0000000000002 791.6666666666665" blush:i="0"><g id="Group 33" blush:i="0.0"><path id="Fill 1" fill-rule="evenodd" clip-rule="evenodd" d="M1373.74 452.346H1279.55C1268.93 398.879 1221.54 358.254 1165.13 358.254H934.462C870.302 358.254 817.806 410.805 817.806 475.035V625.131C817.806 689.359 870.302 741.911 934.462 741.911H1165.13C1229.29 741.911 1281.79 689.359 1281.79 625.131V520.604L1373.74 452.346Z" fill="#CDEEEC" blush:i="0.0.0"/><path id="Fill 4" fill-rule="evenodd" clip-rule="evenodd" d="M598.779 160.017H367.946C303.738 160.017 251.204 212.526 251.204 276.703V370.162H177L251.204 425.158V426.675C251.204 490.852 303.738 543.36 367.946 543.36H598.779C662.987 543.36 715.521 490.852 715.521 426.675V276.703C715.521 212.526 662.987 160.017 598.779 160.017" fill="#CDEEEC" blush:i="0.0.1"/><path id="Stroke 7" fill-rule="evenodd" clip-rule="evenodd" d="M846.341 220.897C848.435 201.819 859.999 184.648 877.757 174.774C900.622 162.061 929.333 158.201 963.175 160.716C985.597 162.384 1006.88 167.966 1023.65 177.677C1044.2 189.573 1057.1 207.07 1060.29 230.41C1064.52 261.347 1049.77 283.258 1021.23 295.937C998.941 305.841 968.915 309.323 944.472 306.455C941.099 306.058 937.728 305.563 934.376 304.971L934.04 304.91L934.334 306.15C936.907 316.887 939.644 324.5 942.274 327.455L942.757 327.979C944.168 329.54 944.658 330.584 943.763 331.957C942.836 333.38 941.695 333.308 939.851 332.587L939.429 332.417C937.122 331.457 933.592 329.3 929.777 326.482L928.925 325.846C918.35 317.85 908.772 307.494 903.062 296.544L902.748 295.935L901.684 295.491C884.699 288.301 870.463 278.067 859.744 264.71L859.192 264.016C849.045 251.124 844.686 235.961 846.341 220.897ZM1021.65 181.139C1005.46 171.764 984.743 166.331 962.878 164.705L960.835 164.561C928.593 162.401 901.305 166.258 879.701 178.27C863.068 187.519 852.269 203.554 850.317 221.334C848.777 235.354 852.835 249.473 862.335 261.542C873.028 275.127 887.508 285.426 904.957 292.518C905.411 292.703 905.782 293.048 905.999 293.489C911.301 304.281 920.806 314.692 931.338 322.655C933.283 324.126 935.162 325.423 936.818 326.463L936.882 326.502L936.76 326.269C934.205 321.34 931.853 313.554 929.611 303.475L929.465 302.814C929.156 301.407 930.391 300.144 931.804 300.422C936.152 301.278 940.543 301.965 944.939 302.482C968.71 305.271 998.022 301.872 1019.61 292.281C1046.62 280.277 1060.29 259.974 1056.33 230.951C1053.32 208.906 1041.18 192.445 1021.65 181.139Z" fill="#FF90A0" blush:i="0.0.2"/><path id="Fill 9" fill-rule="evenodd" clip-rule="evenodd" d="M835.984 114.19C835.3 80.9164 812.823 48.0866 773.49 32.3312C720.487 11.1004 648.876 12.9457 598.596 41.3054C571.195 56.7603 555.211 88.5559 559.773 120.64C563.545 147.172 581.856 167.295 603.812 180.11C628.247 194.372 657.827 203.987 687.985 207.172C672.685 220.059 651.995 235.035 623.979 252C623.979 252 679.073 233.012 718.756 208.112C744.034 206.925 768.631 200.755 789.819 188.467C822.104 169.741 836.554 141.812 835.984 114.19" fill="#FF90A0" blush:i="0.0.3"/><path id="Stroke 11" fill-rule="evenodd" clip-rule="evenodd" d="M410 729.5C410 709.341 426.342 693 446.501 693C466.659 693 483 709.342 483 729.5C483 749.658 466.659 766 446.501 766C426.342 766 410 749.659 410 729.5ZM479 729.5C479 711.551 464.45 697 446.501 697C428.551 697 414 711.55 414 729.5C414 747.45 428.551 762 446.501 762C464.45 762 479 747.449 479 729.5Z" fill="#96DAD5" blush:i="0.0.4"/><path id="Fill 13" fill-rule="evenodd" clip-rule="evenodd" d="M1208 187.499C1208 201.582 1196.58 213 1182.5 213C1168.42 213 1157 201.582 1157 187.499C1157 173.416 1168.42 162 1182.5 162C1196.58 162 1208 173.416 1208 187.499" fill="#96DAD5" blush:i="0.0.5"/><path id="Fill 15" fill-rule="evenodd" clip-rule="evenodd" d="M602.053 770.418C602.053 777.367 596.274 783 589.148 783C582.022 783 576.244 777.367 576.244 770.418C576.244 763.469 582.022 757.836 589.148 757.836C596.274 757.836 602.053 763.469 602.053 770.418" fill="#96DAD5" blush:i="0.0.6"/><g id="Group 22" blush:i="0.0.7"><path id="Fill 18" fill-rule="evenodd" clip-rule="evenodd" d="M615.483 644.346C617.92 665.713 651.182 679.72 656.467 681.821C656.61 681.893 656.704 681.928 656.798 681.963C656.882 681.907 657.011 681.848 657.133 681.743C661.809 678.503 691.052 657.301 688.617 635.979C688.604 635.864 688.591 635.747 688.577 635.631C686.82 621.157 669.411 614.673 658.079 623.833C655.141 626.209 652.812 627.868 651.745 628.609L651.786 628.965C651.786 628.965 651.648 628.936 651.409 628.827C651.202 628.987 651.12 629.041 651.12 629.041L651.078 628.684C650.89 628.617 650.653 628.508 650.37 628.405C648.803 627.751 646.029 626.558 642.643 624.865C629.53 618.304 614.064 628.493 615.358 643.113C615.394 643.523 615.436 643.936 615.483 644.346" fill="#FF90A0" blush:i="0.0.7.0"/><path id="Fill 20" fill-rule="evenodd" clip-rule="evenodd" d="M668.957 693.097C669.655 693.097 670.332 693.377 670.831 693.886C671.449 694.519 671.708 695.422 671.517 696.285C670.322 701.741 669.107 706.124 667.857 709.48C673.544 705.251 681.427 697.919 685.855 688.884C686.138 688.307 686.626 687.853 687.221 687.608C699.613 682.559 709.592 675.296 716.879 666.016C723.354 657.771 726.207 648.215 725.13 638.382C723.787 626.132 716.245 615.061 704.955 608.768C690.46 600.689 670.896 597.511 646.792 599.299C593.232 603.289 583.494 632.751 581.793 645.233C580.048 658.035 583.257 668.702 591.33 676.936C607.868 693.807 641.008 696.736 659.252 694.594C662.332 694.23 665.427 693.744 668.45 693.147C668.618 693.114 668.788 693.097 668.957 693.097V693.097ZM661.613 718.639C661.595 718.639 661.577 718.639 661.557 718.637C660.392 718.6 659.402 717.932 658.973 716.896C658.198 715.017 659.671 713.452 660.299 712.783C661.081 711.949 663.041 708.996 665.502 699.014C663.63 699.32 661.743 699.585 659.863 699.807C636.778 702.517 604.312 697.673 587.588 680.614C578.319 671.16 574.622 659.017 576.597 644.523C578.846 628.033 587.763 615.154 603.104 606.25C617.743 597.753 634.73 594.934 646.403 594.065C671.895 592.162 691.883 595.472 707.505 604.182C720.277 611.301 728.814 623.872 730.343 637.811C731.554 648.878 728.237 660.046 721.001 669.262C713.325 679.034 702.935 686.713 690.109 692.095C682.381 706.961 665.407 718.637 661.613 718.639V718.639Z" fill="#FF90A0" blush:i="0.0.7.1"/></g><g id="Group 32" blush:i="0.0.8"><path id="Fill 23" fill-rule="evenodd" clip-rule="evenodd" d="M1095.38 41.7657C1095.38 46.8163 1091.29 50.9089 1086.25 50.9089C1081.21 50.9089 1077.11 46.8163 1077.11 41.7657C1077.11 36.7165 1081.21 32.6239 1086.25 32.6239C1091.29 32.6239 1095.38 36.7165 1095.38 41.7657" fill="#FF90A0" blush:i="0.0.8.0"/><path id="Fill 25" fill-rule="evenodd" clip-rule="evenodd" d="M1122.68 41.7657C1122.68 46.8163 1118.59 50.9089 1113.54 50.9089C1108.5 50.9089 1104.41 46.8163 1104.41 41.7657C1104.41 36.7165 1108.5 32.6239 1113.54 32.6239C1118.59 32.6239 1122.68 36.7165 1122.68 41.7657" fill="#FF90A0" blush:i="0.0.8.1"/><path id="Fill 27" fill-rule="evenodd" clip-rule="evenodd" d="M1149.97 41.7657C1149.97 46.8163 1145.88 50.9089 1140.83 50.9089C1135.79 50.9089 1131.7 46.8163 1131.7 41.7657C1131.7 36.7165 1135.79 32.6239 1140.83 32.6239C1145.88 32.6239 1149.97 36.7165 1149.97 41.7657" fill="#FF90A0" blush:i="0.0.8.2"/><path id="Fill 29" fill-rule="evenodd" clip-rule="evenodd" d="M1116.88 3.61799C1104.03 3.61799 1091.06 5.70646 1079.87 9.78722C1063.62 15.7153 1052.93 28.399 1052.62 42.0999C1052.35 53.7848 1059.66 64.4287 1072.68 71.3016C1081.66 76.0491 1092.26 78.712 1104.17 79.2219C1108.38 79.4025 1111.35 81.4619 1112.78 85.1803C1114.76 90.3468 1113.34 97.7744 1111.05 103.489C1117.33 97.3831 1121.68 89.2453 1123.09 80.5949C1123.34 79.0507 1124.55 76.6697 1124.69 76.4035C1124.85 76.0939 1125.11 75.8475 1125.42 75.7012C1125.79 75.5312 1127.69 74.6747 1128.95 74.5008C1130.99 74.2202 1133.14 74.0449 1135.23 73.8776C1138.79 73.589 1142.48 73.2899 1145.73 72.4519C1154.77 70.117 1161.9 65.6199 1166.94 59.0857C1174.09 49.8173 1176.2 40.0984 1173.04 30.9776C1169.13 19.6867 1157.5 10.367 1142.7 6.65517C1134.59 4.61941 1125.77 3.61799 1116.88 3.61799V3.61799ZM1105.6 111.362C1105.14 111.362 1104.69 111.156 1104.38 110.772C1103.88 110.146 1103.94 109.243 1104.51 108.685C1107.85 105.412 1112.43 92.9861 1109.86 86.299C1108.89 83.7626 1106.99 82.47 1104.04 82.3421C1091.66 81.8138 1080.62 79.0296 1071.22 74.0647C1057.12 66.6187 1049.2 54.9403 1049.5 42.03C1049.84 27.0326 1061.34 13.225 1078.8 6.8515C1098.58 -0.363935 1122.75 -1.56958 1143.46 3.62327C1159.27 7.58938 1171.74 17.6786 1175.99 29.9551C1178.45 37.0401 1179.3 48.1808 1169.41 60.9963C1163.94 68.0918 1156.23 72.9631 1146.51 75.4759C1143.01 76.3837 1139.18 76.6921 1135.48 76.9912C1133.34 77.1651 1131.32 77.3272 1129.38 77.596C1128.9 77.6619 1127.96 78.0084 1127.22 78.322C1126.8 79.2009 1126.28 80.4368 1126.17 81.0996C1124.19 93.2588 1116.81 104.479 1106.44 111.116C1106.18 111.28 1105.89 111.362 1105.6 111.362V111.362Z" fill="#FF90A0" blush:i="0.0.8.3"/></g></g></g></svg>